<svg xmlns="http://www.w3.org/2000/svg" viewBox="0 0 512 512">
  <rect width="512" height="512" rx="96" fill="#2f8f83"/>
  <path d="M360 160l-120 0c-22 0-40 18-40 40l0 120c0 22 18 40 40 40l120 0c22 0 40-18 40-40l0-120c0-22-18-40-40-40zm-120 40l120 0 0 120-120 0z" fill="white" opacity="0.3"/>
  <path d="M256 120c-74.4 0-136 61.6-136 136s61.6 136 136 136 136-61.6 136-136-61.6-136-136-136zm62 178l-72-54c-3.2-2.4-5-6.2-5-10.2l0-96c0-6.6 5.4-12 12-12 6.6 0 12 5.4 12 12l0 83.6 62.4 46.8c4.8 3.6 6.4 10 3.8 15.4-2.4 5.2-7.8 8.4-13.2 8.4z" fill="white"/>
</svg>
